# xmcd
#
# Track frame offsets:
#	150
#	17947
#	33726
#	47826
#	66212
#	82512
#	100639
#	118450
#	133655
#	149060
#	164840
#	179951
#	197704
#	216874
#	231704
#	245536
#
# Disc length: 3460 seconds
#
# Revision: 1
# Processed by: cddbd v1.5.1PL0 Copyright (c) Steve Scherf et al.
# Submitted via: audiograbber 1.83.01
#
DISCID=020d8210
DTITLE=Yaaw Kuk...Kuk - Medley Esarn - Vol.3
DYEAR=1996
DGENRE=Thai Country
TTITLE0=Mie pah plor sa du
TTITLE1=Num tah kong mie sa du
TTITLE2=Worn mae mun sao
TTITLE3=Kor leaw bor taeng
TTITLE4=Kah fak hua jai
TTITLE5=Rang wan kon koey
TTITLE6=Sung kon jai dum
TTITLE7=Oan nong klub nah
TTITLE8=Ao kuem pai loey
TTITLE9=Jak plor jon
TTITLE10=Ror ruk tee aoo rod
TTITLE11=Kard pee nong kard jai
TTITLE12=Larn koon sib
TTITLE13=Tung tee roo wah tang tun
TTITLE14=Num mor luem
TTITLE15=Sao mor lum
EXTD=
EXTT0=
EXTT1=
EXTT2=
EXTT3=
EXTT4=
EXTT5=
EXTT6=
EXTT7=
EXTT8=
EXTT9=
EXTT10=
EXTT11=
EXTT12=
EXTT13=
EXTT14=
EXTT15=
PLAYORDER=
